{
  "accessors": [
    {
      "bufferView": 2,
      "componentType": 5126,
      "count": 9763,
      "max": [
        6.6690001487731934,
        0.14880000054836273,
        26.791799545288086
      ],
      "min": [
        -6.6690001487731934,
        -35.334499359130859,
        -26.791799545288086
      ],
      "type": "VEC3"
    },
    {
      "bufferView": 2,
      "byteOffset": 117156,
      "componentType": 5126,
      "count": 9763,
      "max": [
        0.99998354911804199,
        0.99976891279220581,
        0.99955469369888306
      ],
      "min": [
        -0.99998354911804199,
        -0.99998700618743896,
        -0.99999666213989258
      ],
      "type": "VEC3"
    },
    {
      "bufferView": 3,
      "componentType": 5126,
      "count": 9763,
      "max": [
        1,
        0.9998859167098999,
        0.99907469749450684,
        1
      ],
      "min": [
        -0.99957603216171265,
        -0.99998235702514648,
        -0.99794942140579224,
        -1
      ],
      "type": "VEC4"
    },
    {
      "bufferView": 1,
      "componentType": 5126,
      "count": 9763,
      "max": [
        0.98400002717971802,
        0.98390001058578491
      ],
      "min": [
        0.022199999541044235,
        0.017200000584125519
      ],
      "type": "VEC2"
    },
    {
      "bufferView": 0,
      "componentType": 5125,
      "count": 55668,
      "max": [
        9762
      ],
      "min": [
        0
      ],
      "type": "SCALAR"
    }
  ],
  "asset": {
    "extras": {
      "author": "Tech developers (https://sketchfab.com/Deepu.Dra)",
      "license": "CC-BY-4.0 (http://creativecommons.org/licenses/by/4.0/)",
      "source": "https://sketchfab.com/3d-models/3d-dog-cute-206d1a40d4654d1e940c9ec05b2cc14f",
      "title": "3d dog cute"
    },
    "generator": "Sketchfab-6.3.0",
    "version": "2.0"
  },
  "bufferViews": [
    {
      "buffer": 0,
      "byteLength": 222672,
      "byteOffset": 0,
      "name": "floatBufferViews",
      "target": 34963
    },
    {
      "buffer": 0,
      "byteLength": 78104,
      "byteOffset": 222672,
      "byteStride": 8,
      "name": "floatBufferViews",
      "target": 34962
    },
    {
      "buffer": 0,
      "byteLength": 234312,
      "byteOffset": 300776,
      "byteStride": 12,
      "name": "floatBufferViews",
      "target": 34962
    },
    {
      "buffer": 0,
      "byteLength": 156208,
      "byteOffset": 535088,
      "byteStride": 16,
      "name": "floatBufferViews",
      "target": 34962
    }
  ],
  "buffers": [
    {
      "byteLength": 691296,
      "uri": "scene.bin"
    }
  ],
  "images": [
    {
      "uri": "textures/material_baseColor.jpeg"
    }
  ],
  "materials": [
    {
      "doubleSided": true,
      "emissiveFactor": [
        0,
        0,
        0
      ],
      "emissiveTexture": {
        "index": 0,
        "texCoord": 0
      },
      "name": "material",
      "pbrMetallicRoughness": {
        "baseColorFactor": [
          1,
          1,
          1,
          1
        ],
        "baseColorTexture": {
          "index": 0,
          "texCoord": 0
        },
        "metallicFactor": 0.076105661103219702,
        "roughnessFactor": 0.98399548530964964
      }
    }
  ],
  "meshes": [
    {
      "primitives": [
        {
          "attributes": {
            "NORMAL": 1,
            "POSITION": 0,
            "TANGENT": 2,
            "TEXCOORD_0": 3
          },
          "indices": 4,
          "material": 0,
          "mode": 4
        }
      ]
    }
  ],
  "nodes": [
    {
      "children": [
        1
      ],
      "name": "RootNode (gltf orientation matrix)",
      "rotation": [
        -0.70710678118654746,
        -0,
        -0,
        0.70710678118654757
      ]
    },
    {
      "children": [
        2
      ],
      "matrix": [
        1,
        -5.5277963475463778e-33,
        2.832769343193999e-16,
        0,
        -4.0026611203055859e-32,
        1,
        1.6081226229577292e-16,
        0,
        -2.832769343193999e-16,
        -1.6081226229577292e-16,
        1,
        0,
        -7.1997800516615529e-21,
        0,
        2.8291374776744094e-15,
        1
      ],
      "name": "RootNode (model correction matrix)"
    },
    {
      "children": [
        3
      ],
      "name": "12228_Dog_v1_L2.obj.cleaner.materialmerger.gles"
    },
    {
      "mesh": 0,
      "name": ""
    }
  ],
  "samplers": [
    {
      "magFilter": 9729,
      "minFilter": 9987,
      "wrapS": 10497,
      "wrapT": 10497
    }
  ],
  "scene": 0,
  "scenes": [
    {
      "name": "OSG_Scene",
      "nodes": [
        0
      ]
    }
  ],
  "textures": [
    {
      "sampler": 0,
      "source": 0
    }
  ]
}

